:SAMPLES-PER-SECOND 30
:FULLY-SPECIFIED
:DEGREES
142
root  -40.6515 40.6956 11.697 -0.0361653 -3.49721 3.36364
RightUpLeg  -12.1542 -15.9574 -11.8064
RightLeg  11.0366 -24.6924 2.96537
RightFoot  3.13888 -0.0316871 0.418147
RightToes  0.00048216 0.542163 -0.142577
Spine  27.8574 -2.32945 9.99174
Spine1  6.99031 0.0705222 -1.40728
HEad  -28.9815 47.2614 -45.072
LeftShoulder1  8.868 -14.8516 -41.9383
LeftArm  -14.1365 16.4454 -27.3095
LeftForeArm  75.1572 -79.3071 -88.263
LeftHand  -0.25398 0.0180481 5.50724
RightShoulder  3.92815 8.173 27.6219
RightArm  -13.3387 -25.4404 25.8751
RightForeArm  70.8829 75.4493 123.915
RightHand  0.405704 -17.8536 -4.78388
LeftUpLeg  -18.4905 22.76 -5.32073
LeftLeg  19.2185 9.02727 3.96418
LeftFoot  -4.75629 0.116083 -1.5104
LeftToes  1.06244e-005 4.65856e-005 -8.18505e-006
143
root  -40.4291 40.7014 11.3263 0.394802 1.89846 3.27239
RightUpLeg  -11.0307 -16.5021 -13.1902
RightLeg  10.2449 -28.9651 2.97147
RightFoot  3.52768 -0.183738 1.59549
RightToes  0.00048216 0.542163 -0.142577
Spine  25.4586 -2.05234 9.93186
Spine1  6.73018 0.360565 -2.11471
HEad  -24.6797 46.8017 -40.4225
LeftShoulder1  8.78159 -14.3915 -42.6455
LeftArm  -14.8242 18.1493 -26.5127
LeftForeArm  78.9315 -79.3069 -92.0169
LeftHand  -0.25398 0.0180481 5.50724
RightShoulder  3.75265 7.71639 27.4196
RightArm  -12.3688 -26.3052 26.8198
RightForeArm  73.3409 75.072 126.116
RightHand  0.474781 -17.8224 -5.41384
LeftUpLeg  -17.1504 21.3683 -1.82571
LeftLeg  22.5596 10.9348 5.26095
LeftFoot  -5.77252 0.0598427 -0.513875
LeftToes  1.06244e-005 4.65856e-005 -8.18505e-006
144
root  -40.1047 40.6631 10.9846 0.633719 7.2773 2.85879
RightUpLeg  -9.69969 -17.2308 -14.4107
RightLeg  9.82481 -32.9871 2.91324
RightFoot  3.66985 -0.352137 2.86255
RightToes  0.00048216 0.542163 -0.142577
Spine  23.4046 -1.89184 9.73279
Spine1  6.41741 0.424548 -2.36705
HEad  -21.8982 47.2597 -37.0175
LeftShoulder1  8.64718 -13.8458 -43.3558
LeftArm  -16.5214 19.8948 -26.4567
LeftForeArm  82.004 -79.2857 -94.8715
LeftHand  -0.25398 0.0180481 5.50724
RightShoulder  3.55535 7.12761 27.4184
RightArm  -11.4745 -26.0593 27.8843
RightForeArm  75.2665 74.814 127.55
RightHand  0.554462 -17.8421 -6.12066
LeftUpLeg  -15.8135 20.8941 1.72158
LeftLeg  24.5944 10.9482 5.74526
LeftFoot  -6.2412 0.0224971 0.327452
LeftToes  1.06244e-005 4.65856e-005 -8.18505e-006
145
root  -39.6767 40.5834 10.6455 0.692849 12.7803 2.26718
RightUpLeg  -8.10245 -18.0028 -15.7256
RightLeg  9.61535 -37.2083 2.81363
RightFoot  4.0811 -0.570502 4.41228
RightToes  0.00048216 0.542163 -0.142577
Spine  21.5797 -1.82341 9.57725
Spine1  6.10562 0.418483 -2.62508
HEad  -19.3701 46.8562 -33.7855
LeftShoulder1  8.55247 -13.4042 -44.036
LeftArm  -18.3425 21.4216 -26.5126
LeftForeArm  84.1395 -79.2555 -96.8568
LeftHand  -0.25398 0.0180481 5.50724
RightShoulder  3.43571 6.62869 27.895
RightArm  -10.6817 -25.3542 28.3823
RightForeArm  76.6824 74.5787 128.744
RightHand  0.643585 -17.5347 -7.0769
LeftUpLeg  -14.6862 21.1555 5.11603
LeftLeg  25.3161 10.0503 5.47489
LeftFoot  -5.97077 0.0205722 0.327668
LeftToes  1.06244e-005 4.65856e-005 -8.18505e-006
146
root  -39.1465 40.5072 10.3154 0.765724 18.3447 1.96965
RightUpLeg  -6.09675 -18.9388 -17.5655
RightLeg  9.11697 -41.2493 2.94175
RightFoot  4.95927 -0.82922 6.02159
RightToes  0.00048216 0.542163 -0.142577
Spine  19.7036 -1.69296 9.24858
Spine1  6.15523 0.534949 -3.24251
HEad  -17.1914 45.1978 -30.6023
LeftShoulder1  8.46539 -13.0741 -44.4759
LeftArm  -19.5517 22.4468 -26.46
LeftForeArm  85.4646 -79.2256 -98.1537
LeftHand  -0.25398 0.0180481 5.50724
RightShoulder  3.42834 6.46228 28.3994
RightArm  -10.486 -24.9385 28.5652
RightForeArm  77.6755 74.3049 129.98
RightHand  0.726487 -16.9269 -8.20409
LeftUpLeg  -13.7139 23.1362 7.4757
LeftLeg  24.5132 9.82443 5.18527
LeftFoot  -5.94586 0.01944 0.356021
LeftToes  1.06244e-005 4.65856e-005 -8.18505e-006
147
root  -38.4873 40.4608 9.99893 0.949524 24.2126 2.14235
RightUpLeg  -3.32857 -19.7726 -19.9795
RightLeg  7.66164 -45.3111 3.53318
RightFoot  6.18044 -1.06006 7.14817
RightToes  0.00048216 0.542163 -0.142577
Spine  17.6365 -1.49865 8.69587
Spine1  6.78347 0.722541 -3.99253
HEad  -15.0722 42.3892 -27.375
LeftShoulder1  8.34892 -12.789 -44.6385
LeftArm  -19.8716 22.8378 -26.363
LeftForeArm  86.5992 -79.1894 -99.3468
LeftHand  -0.25398 0.0180481 5.50724
RightShoulder  3.44776 6.51656 28.4085
RightArm  -11.0285 -25.1137 28.91
RightForeArm  78.5053 74.0001 131.249
RightHand  0.790737 -16.6595 -9.00874
LeftUpLeg  -12.7216 26.8182 8.16211
LeftLeg  22.4081 11.882 5.63704
LeftFoot  -6.4479 -0.00883308 1.10325
LeftToes  1.06244e-005 4.65856e-005 -8.18505e-006
148
root  -37.6611 40.392 9.67127 1.30455 30.8071 2.52508
RightUpLeg  0.242816 -20.0822 -22.5758
RightLeg  5.17991 -49.9877 4.54811
RightFoot  7.59661 -1.35037 8.38423
RightToes  0.00048216 0.542163 -0.142577
Spine  15.4408 -1.37324 8.24347
Spine1  7.561 0.842942 -4.64255
HEad  -12.4955 38.6151 -23.5189
LeftShoulder1  8.24107 -12.5681 -44.6679
LeftArm  -19.3632 22.8486 -26.3448
LeftForeArm  88.3261 -79.1251 -101.159
LeftHand  -0.25398 0.0180481 5.50724
RightShoulder  3.40779 6.47545 28.1421
RightArm  -11.5915 -25.9014 28.922
RightForeArm  79.8138 73.5992 132.841
RightHand  0.821233 -17.0628 -9.02126
LeftUpLeg  -12.1302 30.6332 7.28336
LeftLeg  20.0682 15.3305 6.4298
LeftFoot  -6.22217 -0.0160332 1.22159
LeftToes  1.06244e-005 4.65856e-005 -8.18505e-006
149
root  -36.67 40.2439 9.31969 2.18247 37.9968 3.1362
RightUpLeg  4.11301 -19.9547 -25.1578
RightLeg  2.1286 -53.9093 5.9865
RightFoot  8.60028 -1.84352 10.8011
RightToes  0.00048216 0.542163 -0.142577
Spine  13.0833 -1.21876 7.69217
Spine1  8.0907 0.940564 -5.14075
HEad  -9.75428 33.977 -19.0771
LeftShoulder1  8.15583 -12.4433 -44.5462
LeftArm  -18.3978 22.8954 -26.7078
LeftForeArm  91.254 -79.003 -104.087
LeftHand  -0.25398 0.0180481 5.50724
RightShoulder  3.32116 6.26829 27.9746
RightArm  -11.485 -27.3219 27.9017
RightForeArm  81.7596 72.9396 135.214
RightHand  0.815933 -17.4351 -8.71343
LeftUpLeg  -12.6589 33.4493 5.18238
LeftLeg  18.8051 16.1183 6.33457
LeftFoot  -4.65931 0.0704219 -0.663269
LeftToes  1.06244e-005 4.65856e-005 -8.18505e-006
